<?xml version="1.0" encoding="utf-8"?>
<!-- Generator: Adobe Illustrator 24.0.1, SVG Export Plug-In . SVG Version: 6.00 Build 0)  -->
<svg version="1.1" id="Layer_1" xmlns="http://www.w3.org/2000/svg" xmlns:xlink="http://www.w3.org/1999/xlink" x="0px" y="0px"
	 viewBox="0 0 559 72" style="enable-background:new 0 0 559 72;" xml:space="preserve">
<style type="text/css">
	.st0{fill:#002554;}
	.st1{fill:#E04403;}
</style>
<title>Centerpiece Logo HOR</title>
<polygon class="st0" points="65.1,-213.6 65.1,-221.6 49.1,-221.6 41.1,-221.6 41.1,-213.6 41.1,-205.6 41.1,-197.6 49.1,-197.6 
	65.1,-197.6 65.1,-205.6 49.1,-205.6 49.1,-213.6 "/>
<polygon class="st0" points="41.1,-189.6 41.1,-197.6 25.1,-197.6 17.1,-197.6 17.1,-189.6 17.1,-181.6 17.1,-173.6 25.1,-173.6 
	41.1,-173.6 41.1,-181.6 25.1,-181.6 25.1,-189.6 "/>
<rect x="49.1" y="-189.6" class="st1" width="16" height="8"/>
<polygon class="st0" points="89.1,-189.6 89.1,-197.6 73.1,-197.6 65.1,-197.6 65.1,-189.6 65.1,-181.6 65.1,-173.6 73.1,-173.6 
	89.1,-173.6 89.1,-181.6 73.1,-181.6 73.1,-189.6 "/>
<polygon class="st0" points="65.1,-165.6 65.1,-173.6 49.1,-173.6 41.1,-173.6 41.1,-165.6 41.1,-157.6 41.1,-149.6 49.1,-149.6 
	65.1,-149.6 65.1,-157.6 49.1,-157.6 49.1,-165.6 "/>
<path class="st0" d="M111.6-185.4v-0.1c0-12.4,9.4-22.6,22.8-22.6c8.3,0,13.2,2.7,17.3,6.8l-6.1,7.1c-3.4-3.1-6.8-4.9-11.2-4.9
	c-7.4,0-12.7,6.1-12.7,13.6v0.1c0,7.5,5.2,13.8,12.7,13.8c5,0,8.1-2,11.5-5.1l6.1,6.2c-4.5,4.8-9.5,7.8-17.9,7.8
	c-12.2,0.2-22.2-9.5-22.4-21.7C111.6-184.9,111.6-185.2,111.6-185.4z"/>
<path class="st0" d="M161.3-207.4h33v8.6h-23.4v8.9h20.6v8.6h-20.6v9.2h23.8v8.6h-33.3L161.3-207.4z"/>
<path class="st0" d="M204.7-207.4h8.9l20.5,26.9v-26.9h9.5v43.8h-8.2l-21.2-27.8v27.8h-9.5L204.7-207.4z"/>
<path class="st0" d="M265.9-198.6h-13.3v-8.9h36.3v8.9h-13.3v34.9h-9.6V-198.6z"/>
<path class="st0" d="M297.1-207.4h33v8.6h-23.4v8.9h20.6v8.6h-20.6v9.2h23.8v8.6h-33.3L297.1-207.4z"/>
<path class="st0" d="M340.6-207.4h20c5.6,0,9.9,1.6,12.8,4.4c2.5,2.7,3.9,6.3,3.8,10v0.1c0,7.1-3.8,11.5-9.4,13.6l10.7,15.6h-11.3
	l-9.4-14h-7.6v14h-9.6V-207.4z M359.9-186.2c4.7,0,7.4-2.5,7.4-6.2v-0.1c0-4.1-2.9-6.3-7.6-6.3h-9.6v12.6H359.9z"/>
<path class="st0" d="M387.3-207.4h17.9c10.4,0,16.8,6.2,16.8,15.1v0.1c0,10.1-7.9,15.4-17.7,15.4h-7.3v13.1h-9.6L387.3-207.4z
	 M404.6-185.4c4.8,0,7.6-2.9,7.6-6.6v-0.1c0-4.3-3-6.6-7.8-6.6h-7.4v13.4H404.6z"/>
<path class="st0" d="M431.1-207.4h9.6v43.8h-9.6V-207.4z"/>
<path class="st0" d="M453.2-207.4h33v8.6h-23.4v8.9h20.6v8.6h-20.6v9.2h23.8v8.6h-33.3L453.2-207.4z"/>
<path class="st0" d="M493.2-185.4v-0.1c0-12.4,9.4-22.6,22.8-22.6c8.3,0,13.2,2.7,17.3,6.8l-6.1,7.1c-3.4-3.1-6.8-4.9-11.2-4.9
	c-7.4,0-12.7,6.1-12.7,13.6v0.1c0,7.5,5.2,13.8,12.7,13.8c5,0,8.1-2,11.5-5.1l6.1,6.2c-4.5,4.8-9.5,7.8-17.9,7.8
	c-12.2,0.2-22.2-9.5-22.4-21.7C493.1-184.9,493.1-185.2,493.2-185.4z"/>
<path class="st0" d="M542.8-207.4h33v8.6h-23.4v8.9H573v8.6h-20.6v9.2h23.8v8.6h-33.3L542.8-207.4z"/>
</svg>
