<svg xmlns="http://www.w3.org/2000/svg" width="7.7633in" height="1in" viewBox="0 0 558.958 72"><title>cp-logo-hor-white</title><polygon points="48 8 48 0 32 0 24 0 24 8 24 16 24 24 32 24 48 24 48 16 32 16 32 8 48 8" fill="#fff"/><polygon points="24 32 24 24 8 24 0 24 0 32 0 40 0 48 8 48 24 48 24 40 8 40 8 32 24 32" fill="#fff"/><rect x="32" y="32" width="16" height="8" fill="#fff"/><polygon points="72 32 72 24 56 24 48 24 48 32 48 40 48 48 56 48 72 48 72 40 56 40 56 32 72 32" fill="#fff"/><polygon points="48 56 48 48 32 48 24 48 24 56 24 64 24 72 32 72 48 72 48 64 32 64 32 56 48 56" fill="#fff"/><path d="M94.5,36.1242V36c0-12.44,9.3749-22.6286,22.816-22.6286,8.2522,0,13.19,2.7493,17.2522,6.75l-6.1265,7.0639c-3.375-3.0632-6.8132-4.9382-11.1889-4.9382-7.3757,0-12.6889,6.1264-12.6889,13.6286V36c0,7.5,5.1889,13.7528,12.6889,13.7528,5.0014,0,8.0647-2.0014,11.5029-5.1257l6.1264,6.1875c-4.5022,4.8139-9.5014,7.8139-17.9411,7.8139A22.0865,22.0865,0,0,1,94.4989,36.9034Q94.4926,36.5139,94.5,36.1242Z" transform="translate(0 0)" fill="#fff"/><path d="M144.1306,14.1217h33.0065v8.5639H153.6953v8.8757h20.6293v8.564H153.6953v9.19H177.451v8.5639h-33.32Z" transform="translate(0 0)" fill="#fff"/><path d="M187.576,14.1217h8.8779l20.5028,26.9411V14.1217h9.5015V57.8788h-8.189l-21.19-27.8175V57.8788h-9.5036Z" transform="translate(0 0)" fill="#fff"/><path d="M248.7139,22.9971H235.3993V14.1217h36.2571v8.8757H258.34V57.8788h-9.6257Z" transform="translate(0 0)" fill="#fff"/><path d="M279.9675,14.1217h33.0064v8.5639H289.5321v8.8757h20.6293v8.564H289.5321v9.19h23.7558v8.5639h-33.32Z" transform="translate(0 0)" fill="#fff"/><path d="M323.4128,14.1217h20.0036c5.564,0,9.8786,1.561,12.7522,4.4368a13.7358,13.7358,0,0,1,3.7521,10.0028v.1243c0,7.0639-3.8132,11.5029-9.3771,13.5654l10.69,15.6278H349.9811l-9.3772-14.0014h-7.5632V57.8788h-9.6279Zm19.38,21.2528c4.6875,0,7.3757-2.5007,7.3757-6.1874v-.1265c0-4.125-2.8757-6.2507-7.5632-6.2507h-9.5647V35.3745Z" transform="translate(0 0)" fill="#fff"/><path d="M370.1722,14.1217h17.88c10.4389,0,16.7529,6.1875,16.7529,15.1264v.1265c0,10.1249-7.8772,15.3771-17.69,15.3771H379.8V57.8788h-9.6278Zm17.2543,22.0661c4.8139,0,7.6264-2.8758,7.6264-6.6257v-.1265c0-4.3125-3-6.6257-7.8139-6.6257H379.8V36.1878Z" transform="translate(0 0)" fill="#fff"/><path d="M413.9293,14.1217h9.628V57.8788h-9.628Z" transform="translate(0 0)" fill="#fff"/><path d="M436.0586,14.1217h33.0065v8.5639H445.6233v8.8757h20.63v8.564h-20.63v9.19H469.379v8.5639h-33.32Z" transform="translate(0 0)" fill="#fff"/><path d="M476.0047,36.1242V36c0-12.44,9.375-22.6286,22.8161-22.6286,8.2521,0,13.19,2.7493,17.2521,6.75l-6.1264,7.0639c-3.375-3.0632-6.8132-4.9382-11.1889-4.9382-7.3757,0-12.6891,6.1264-12.6891,13.6286V36c0,7.5,5.1891,13.7528,12.6891,13.7528,5.0014,0,8.0645-2.0014,11.5028-5.1257l6.1265,6.1875c-4.5022,4.8139-9.5015,7.8139-17.9411,7.8139a22.0866,22.0866,0,0,1-22.4422-21.7252Q475.9973,36.5139,476.0047,36.1242Z" transform="translate(0 0)" fill="#fff"/><path d="M525.6376,14.1217H558.644v8.5639H535.2022v8.8757h20.6293v8.564H535.2022v9.19H558.958v8.5639h-33.32Z" transform="translate(0 0)" fill="#fff"/></svg>