<svg xmlns="http://www.w3.org/2000/svg" width="1in" height="1in" viewBox="0 0 72 72"><title>cp-logo-mark-color</title><polygon points="48 8 48 0 32 0 24 0 24 8 24 16 24 24 32 24 48 24 48 16 32 16 32 8 48 8" fill="#182853"/><polygon points="24 32 24 24 8 24 0 24 0 32 0 40 0 48 8 48 24 48 24 40 8 40 8 32 24 32" fill="#182853"/><rect x="32" y="32" width="16" height="8" fill="#de4826"/><polygon points="72 32 72 24 56 24 48 24 48 32 48 40 48 48 56 48 72 48 72 40 56 40 56 32 72 32" fill="#182853"/><polygon points="48 56 48 48 32 48 24 48 24 56 24 64 24 72 32 72 48 72 48 64 32 64 32 56 48 56" fill="#182853"/></svg>