<svg xmlns="http://www.w3.org/2000/svg" xmlns:xlink="http://www.w3.org/1999/xlink" width="0.375in" height="0.375in" viewBox="0 0 27 26.999"><defs><clipPath id="a" transform="translate(-166.8175 -166.5004)"><rect x="166.8175" y="166.5006" width="27" height="26.999" fill="none"/></clipPath></defs><title>cp-web20-icon-linkedin-660</title><g clip-path="url(#a)"><path d="M189.83,181.5364c0-3.939-2.448-5.282-4.713-5.282a4.4284,4.4284,0,0,0-3.858,2.149h-.052v-1.787h-3.903v12.895h4.059V182.52a2.4689,2.4689,0,0,1,2.385-2.771c1.139,0,2.023.641,2.023,2.719v7.043h4.059Zm-14.654-9.046a2.34,2.34,0,1,0-2.34,2.329,2.2991,2.2991,0,0,0,2.34-2.329m-.311,4.116h-4.059v12.895h4.059Zm18.953-8.113v23.013a1.9926,1.9926,0,0,1-1.993,1.993h-23.014a1.9926,1.9926,0,0,1-1.993-1.993v-23.013a1.9926,1.9926,0,0,1,1.993-1.993h23.014a1.9926,1.9926,0,0,1,1.993,1.993" transform="translate(-166.8175 -166.5004)" fill="#3d7cc9"/></g></svg>