<svg xmlns="http://www.w3.org/2000/svg" xmlns:xlink="http://www.w3.org/1999/xlink" width="9in" height="3.25in" viewBox="0 0 647.9995 233.9995"><defs><clipPath id="a" transform="translate(-252.2144 -208.9282)"><rect x="252.2142" y="208.9286" width="648" height="234" fill="none"/></clipPath></defs><title>cp-web20-icon-partnership</title><rect x="230.4004" y="110.4189" width="41.0962" height="5.5244" fill="#3d7cc9"/><rect x="377.4272" y="110.4189" width="41.0967" height="5.5244" fill="#194792"/><g clip-path="url(#a)"><path d="M630.13,335.885l-7.307,3.734-13.446-37.109,7.896-4.038a1.05,1.05,0,0,1,.429-.101.9867.9867,0,0,1,.392.083,1.6952,1.6952,0,0,1,.876,1.027l12.077,33.721a2.1684,2.1684,0,0,1-.917,2.683m5.361-4.278-12.078-33.716a6.387,6.387,0,0,0-3.494-3.789,5.7447,5.7447,0,0,0-4.711.124l-7.892,4.039a4.5887,4.5887,0,0,0-2.268,5.729l.155.434c-5.205,2.413-7.289,1.927-12.73-.913a34.1359,34.1359,0,0,0-8.994-3.6,12.0753,12.0753,0,0,0-10.022,2.706l-3.454,3.252c-.304.302-.609.608-.911.91-1.254,1.254-2.406,2.411-2.701,2.669-8.542,7.335-9.538,11.317-9.649,12.041a2.3837,2.3837,0,0,0,.272,1.517,10.4982,10.4982,0,0,0,6.523,4.808c3.282.728,6.813-.212,10.497-2.821,5.052-3.559,12.258-5.482,15.097-3.288l.05.024c-2.673-2.084-9.777-6.306-17.872-.59-2.535,1.798-4.803,2.475-6.679,2.083a5.555,5.555,0,0,1-2.867-1.714c.705-1.305,2.641-4.131,7.707-8.482.295-.254,1.572-1.526,2.959-2.914,1.545-1.544,3.237-3.245,3.651-3.595,2.84-2.287,4.993-2.259,6.514-1.969a29.8149,29.8149,0,0,1,7.694,3.149c6.468,3.367,10.031,4.059,16.51,1.177l9.263,25.854.002.006-6.006,2.905a8.6142,8.6142,0,0,1,.149,5.177l7.455-3.623.002.005.887,2.477a4.3685,4.3685,0,0,0,2.402,2.586,4.0116,4.0116,0,0,0,1.563.318,4.0692,4.0692,0,0,0,1.705-.382c.023-.009.051-.023.078-.037l7.897-4.034a6.82,6.82,0,0,0,3.296-8.523" transform="translate(-252.2144 -208.9282)" fill="#fff"/><path d="M531.463,339.6835l-7.864-4.043a2.1614,2.1614,0,0,1-.835-2.641l12.078-33.725a1.6968,1.6968,0,0,1,.876-1.024,1.17,1.17,0,0,1,.415-.083.8345.8345,0,0,1,.318.06l8.21,4.172Zm78.594-2.04a8.4359,8.4359,0,0,0-3.234-4.432l-9.639-6.509c-3.54-2.148-7.514-4.61-8.002-4.97l-.05-.023c-2.84-2.195-10.046-.272-15.098,3.287,5.052-3.559,9.45-1.706,12.29.489.968.723,7.172,4.503,8.311,5.19l9.538,6.44a4.3888,4.3888,0,0,1,1.06,5.587,3.2021,3.2021,0,0,1-2.024,1.683,2.7154,2.7154,0,0,1-2.295-.526.0374.0374,0,0,1-.016-.007l-9.757-5.925a2.3623,2.3623,0,0,0-2.453,4.038l9.341,5.674a4.4951,4.4951,0,0,1,.4,4.928,3.2212,3.2212,0,0,1-2.019,1.683,2.6454,2.6454,0,0,1-2.213-.466l-13.064-8.062a2.372,2.372,0,0,0-2.512,4.024l6.873,4.342a4.39,4.39,0,0,1,1.065,5.587,3.2021,3.2021,0,0,1-2.024,1.683,2.6293,2.6293,0,0,1-2.18-.452l-6.827-4.315-5.786-4.158-.004-.004a2.361,2.361,0,0,0-2.762,3.83l7.445,5.376a4.3738,4.3738,0,0,1,1.06,5.582,3.1764,3.1764,0,0,1-2.019,1.683,2.6057,2.6057,0,0,1-2.12-.406l-24.801-16.89a22.4481,22.4481,0,0,1-6.186-6.408c-1.194-1.853-2.291-5.956-2.946-8.408l-.022-.085,10.917-30.473c3.603.924,7.077-.033,10.209-.931,4.038-1.162,7.514-2.162,11.036.193l.454.381,3.455-3.253-1.083-.899c-5.542-3.724-10.879-2.189-15.157-.963-2.939.844-5.528,1.498-7.982.765a4.2782,4.2782,0,0,0-2.312-3.213l-8.399-4.319a5.6578,5.6578,0,0,0-4.633-.092,6.3957,6.3957,0,0,0-3.494,3.784l-12.078,33.721a6.7959,6.7959,0,0,0,3.209,8.477l8.321,4.278a.6271.6271,0,0,0,.082.041,3.9954,3.9954,0,0,0,3.269.065,4.19,4.19,0,0,0,1.238-.869,20.8763,20.8763,0,0,0,1.947,4.359,27.04,27.04,0,0,0,7.5,7.748l24.801,16.891a7.3463,7.3463,0,0,0,4.153,1.304,7.1725,7.1725,0,0,0,1.756-.216,8.04,8.04,0,0,0,5.113-4.154,9.27,9.27,0,0,0,1.069-3.89,7.1717,7.1717,0,0,0,4.891.502,8.0394,8.0394,0,0,0,5.112-4.153,9.1305,9.1305,0,0,0,1.065-3.9,7.2015,7.2015,0,0,0,5.693.945,8.0411,8.0411,0,0,0,5.112-4.154,9.2444,9.2444,0,0,0,.982-5.573,6.137,6.137,0,0,0,.71-.138,8.0355,8.0355,0,0,0,5.112-4.154,9.0541,9.0541,0,0,0,.751-1.993,8.6139,8.6139,0,0,0-.149-5.177" transform="translate(-252.2144 -208.9282)" fill="#fff"/><path d="M369.2144,442.9277a117,117,0,1,1,117-116.999A117.1317,117.1317,0,0,1,369.2144,442.9277Zm0-225.7133A108.7141,108.7141,0,1,0,477.9282,325.9287,108.8373,108.8373,0,0,0,369.2144,217.2144Z" transform="translate(-252.2144 -208.9282)" fill="#3d7cc9"/></g><polygon points="138.544 66.731 138.544 52.368 109.818 52.368 95.456 52.368 95.456 66.731 95.456 81.094 95.456 95.457 109.818 95.457 138.544 95.457 138.544 81.094 109.818 81.094 109.818 66.731 138.544 66.731" fill="#fff"/><polygon points="95.456 109.819 95.456 95.456 66.73 95.456 52.368 95.456 52.368 109.819 52.368 124.182 52.368 138.545 66.73 138.545 95.456 138.545 95.456 124.182 66.73 124.182 66.73 109.819 95.456 109.819" fill="#fff"/><rect x="109.8179" y="109.8184" width="28.726" height="14.363" fill="#fff"/><polygon points="181.632 109.819 181.632 95.456 152.906 95.456 138.544 95.456 138.544 109.819 138.544 124.182 138.544 138.545 152.906 138.545 181.632 138.545 181.632 124.182 152.906 124.182 152.906 109.819 181.632 109.819" fill="#fff"/><polygon points="138.544 152.907 138.544 138.544 109.818 138.544 95.456 138.544 95.456 152.907 95.456 167.27 95.456 181.633 109.818 181.633 138.544 181.633 138.544 167.27 109.818 167.27 109.818 152.907 138.544 152.907" fill="#fff"/><g clip-path="url(#a)"><path d="M783.2139,442.9277a117,117,0,1,1,117-116.999A117.1313,117.1313,0,0,1,783.2139,442.9277Zm0-225.7133A108.7141,108.7141,0,1,0,891.9287,325.9287,108.8376,108.8376,0,0,0,783.2139,217.2144Z" transform="translate(-252.2144 -208.9282)" fill="#194792"/><path d="M732.8665,280.3986s5.641.358,5.641,4.566v42.261c0,2.328-5.641,4.566-5.641,4.566Zm22.205,25.637c0-24.473-17.31-29.965-20.414-29.965H709.11v3.94c2.746,0,6.447,2.865,6.447,5.372V357.37c0,4.417-6.447,6.327-6.447,6.327v3.581h29.01V363.1c-5.372,0-5.372-5.73-5.372-5.73v-18.624c23.04-1.313,22.324-32.71,22.324-32.71" transform="translate(-252.2144 -208.9282)" fill="#fff"/><path d="M746.8342,367.3376h27.845v-3.85s-5.103-1.433-5.103-3.85v-12.177c0-1.88,3.134-4.835,4.924-4.835v-2.955h-27.487v3.045s5.193,2.328,5.193,4.835V359.28c0,1.791-3.581,4.387-5.372,4.387Z" transform="translate(-252.2144 -208.9282)" fill="#fff"/><path d="M775.04,326.6437a9.3565,9.3565,0,1,1-9.3571-9.357,9.3565,9.3565,0,0,1,9.3571,9.357" transform="translate(-252.2144 -208.9282)" fill="#fff"/><path d="M782.2007,367.3376h-3.94v-24.533h3.94s1.522,17.102,11.729,17.102,12.088-11.461,6.626-19.877-17.191-21.131-19.788-24.533-5.461-10.118-5.461-20.146,7.968-19.16,17.459-19.16c7.073,0,9.133,1.88,11.013,2.865s5.551.269,5.82-2.955h3.761v23.996h-4.119s-3.492-17.28-12.983-17.28-9.133,10.207-8.327,13.43a23.5646,23.5646,0,0,0,4.298,7.968c1.253,1.612,13.699,17.46,18.444,23.548s8.327,15.848,5.283,24.085-12.714,16.027-18.444,15.938a25.581,25.581,0,0,1-10.834-2.686c-1.254-.538-4.477.268-4.477,2.238" transform="translate(-252.2144 -208.9282)" fill="#fff"/><path d="M834.49,319.5253s6.327,21.034,7.532,25.16h-14.187c2.902-10.977,6.655-25.16,6.655-25.16m27.129,35.725c-.985-3.671-19.519-79.149-19.519-79.149h-3.223s-18.265,71.091-20.504,79.149-8.864,8.595-8.864,8.595v3.492h19.429c-.01-.241-.089-3.939-.089-3.939-4.119,0-4.924-3.85-4.298-6.268.141-.542.721-2.743,1.533-5.82H843.87a49.2943,49.2943,0,0,1,1.364,6.805c.358,3.671-4.298,5.641-4.298,5.641v3.223h28.383v-3.581c-5.103,0-6.715-4.477-7.7-8.148" transform="translate(-252.2144 -208.9282)" fill="#fff"/></g></svg>