<svg xmlns="http://www.w3.org/2000/svg" width="1in" height="1in" viewBox="0 0 72 72"><title>cp web20 icon EO</title><circle cx="35.9999" cy="36" r="34" fill="#002554"/><path d="M180.3175,148a32,32,0,1,1-32,32,32.0363,32.0363,0,0,1,32-32m0-4a36,36,0,1,0,36,36,36,36,0,0,0-36-36Z" transform="translate(-144.3175 -144)" fill="#3d7cc9"/><path d="M157.2087,167.8838h19.4876v5.7126H163.8547v3.6689h11.6306v5.2965H163.8547v3.8418H176.87v5.7113H157.2087Z" transform="translate(-144.3175 -144)" fill="#fff"/><path d="M179.3257,180.0683v-.069c0-6.9567,5.608-12.5991,13.0848-12.5991s13.0158,5.5722,13.0158,12.53v.0689c0,6.9581-5.6086,12.6-13.0854,12.6S179.3257,187.0263,179.3257,180.0683Zm19.2465,0v-.069a6.2973,6.2973,0,0,0-6.2313-6.542,6.1753,6.1753,0,0,0-6.1267,6.4731v.0689a6.29,6.29,0,0,0,6.1963,6.5421A6.181,6.181,0,0,0,198.5722,180.0683Z" transform="translate(-144.3175 -144)" fill="#fff"/></svg>