<svg xmlns="http://www.w3.org/2000/svg" width="0.3472in" height="0.2778in" viewBox="0 0 25 20"><title>cp-web20-icon-catalog-660</title><path d="M192.3175,170h-20a.5.5,0,0,0-.5.5V187a.5.5,0,0,1-1,0V174h-2.5a.5.5,0,0,0-.5.5v12.9146a2.6548,2.6548,0,0,0,2.232,2.5452.499.499,0,0,0,.1962.04h20.0718a2.5024,2.5024,0,0,0,2.5-2.499V170.5A.5.5,0,0,0,192.3175,170Zm-10.5,6h6v1h-6Zm-2,8.5a.5.5,0,0,1-.5.5h-3a.5.5,0,0,1-.5-.5v-3a.5.5,0,0,1,.5-.5h3a.5.5,0,0,1,.5.5Zm0-7a.5.5,0,0,1-.5.5h-3a.5.5,0,0,1-.5-.5v-3a.5.5,0,0,1,.5-.5h3a.5.5,0,0,1,.5.5Zm8,6.5h-6v-1h6Zm1-2h-7v-1h7Zm0-7h-7v-1h7Z" transform="translate(-167.8175 -170)" fill="#427bbf"/></svg>